<svg viewBox="0 0 24 24" xmlns="http://www.w3.org/2000/svg" xmlns:xlink="http://www.w3.org/1999/xlink" width="24.000000" height="24.000000" fill="none" customFrame="#000000">
	<rect id="New_Icon_For_LMS" width="24.000000" height="24.000000" x="0.000000" y="0.000000" fill="rgb(255,255,255)" fill-opacity="0" />
	<path id="Vector" d="M2.55 11.8528C2.62879 11.9119 2.71845 11.9549 2.81386 11.9794C2.90927 12.0038 3.00856 12.0092 3.10607 11.9953C3.20357 11.9814 3.29737 11.9484 3.38212 11.8982C3.46687 11.848 3.54091 11.7816 3.6 11.7028C4.05409 11.0974 4.64291 10.606 5.31983 10.2675C5.99675 9.92903 6.74318 9.75282 7.5 9.75282C8.25682 9.75282 9.00324 9.92903 9.68017 10.2675C10.3571 10.606 10.9459 11.0974 11.4 11.7028C11.5195 11.8618 11.6972 11.9668 11.8941 11.9948C12.091 12.0227 12.291 11.9713 12.45 11.8519C12.5067 11.8097 12.5569 11.7595 12.5991 11.7028C13.0532 11.0974 13.642 10.606 14.3189 10.2675C14.9958 9.92903 15.7422 9.75282 16.4991 9.75282C17.2559 9.75282 18.0023 9.92903 18.6792 10.2675C19.3561 10.606 19.945 11.0974 20.3991 11.7028C20.5185 11.862 20.6963 11.9671 20.8933 11.9951C21.0903 12.0232 21.2904 11.9718 21.4495 11.8524C21.6087 11.7329 21.7138 11.5551 21.7419 11.3581C21.7699 11.1611 21.7185 10.961 21.5991 10.8019C20.9352 9.91189 20.0499 9.21116 19.0312 8.76939C19.5897 8.25952 19.981 7.59272 20.1537 6.85651C20.3264 6.1203 20.2725 5.34907 19.9991 4.64403C19.7256 3.939 19.2454 3.3331 18.6215 2.90586C17.9975 2.47862 17.259 2.25 16.5028 2.25C15.7466 2.25 15.0081 2.47862 14.3841 2.90586C13.7602 3.3331 13.28 3.939 13.0065 4.64403C12.7331 5.34907 12.6792 6.1203 12.8519 6.85651C13.0247 7.59272 13.4159 8.25952 13.9744 8.76939C13.2389 9.08743 12.5707 9.54274 12.0056 10.1109C11.4406 9.54274 10.7724 9.08743 10.0369 8.76939C10.5953 8.25952 10.9866 7.59272 11.1593 6.85651C11.332 6.1203 11.2781 5.34907 11.0047 4.64403C10.7313 3.939 10.2511 3.3331 9.62712 2.90586C9.00317 2.47862 8.26464 2.25 7.50844 2.25C6.75224 2.25 6.0137 2.47862 5.38976 2.90586C4.76581 3.3331 4.28561 3.939 4.01218 4.64403C3.73874 5.34907 3.68484 6.1203 3.85756 6.85651C4.03028 7.59272 4.42154 8.25952 4.98 8.76939C3.95686 9.20972 3.06722 9.9109 2.4 10.8028C2.34091 10.8816 2.29791 10.9713 2.27346 11.0667C2.24902 11.1621 2.24361 11.2614 2.25754 11.3589C2.27147 11.4564 2.30446 11.5502 2.35464 11.6349C2.40482 11.7197 2.47121 11.7937 2.55 11.8528ZM16.5 3.75282C16.945 3.75282 17.38 3.88478 17.75 4.13202C18.12 4.37925 18.4084 4.73065 18.5787 5.14179C18.749 5.55292 18.7936 6.00532 18.7068 6.44178C18.6199 6.87823 18.4057 7.27915 18.091 7.59381C17.7763 7.90848 17.3754 8.12278 16.939 8.20959C16.5025 8.29641 16.0501 8.25185 15.639 8.08155C15.2278 7.91126 14.8764 7.62287 14.6292 7.25286C14.382 6.88285 14.25 6.44783 14.25 6.00282C14.25 5.40609 14.4871 4.83379 14.909 4.41183C15.331 3.98988 15.9033 3.75282 16.5 3.75282ZM7.5 3.75282C7.94501 3.75282 8.38002 3.88478 8.75003 4.13202C9.12004 4.37925 9.40843 4.73065 9.57873 5.14179C9.74903 5.55292 9.79358 6.00532 9.70677 6.44178C9.61995 6.87823 9.40566 7.27915 9.09099 7.59381C8.77632 7.90848 8.37541 8.12278 7.93895 8.20959C7.5025 8.29641 7.0501 8.25185 6.63896 8.08155C6.22783 7.91126 5.87643 7.62287 5.62919 7.25286C5.38196 6.88285 5.25 6.44783 5.25 6.00282C5.25 5.40609 5.48705 4.83379 5.90901 4.41183C6.33097 3.98988 6.90326 3.75282 7.5 3.75282ZM19.0312 18.5194C19.5897 18.0095 19.981 17.3427 20.1537 16.6065C20.3264 15.8703 20.2725 15.0991 19.9991 14.394C19.7256 13.689 19.2454 13.0831 18.6215 12.6559C17.9975 12.2286 17.259 12 16.5028 12C15.7466 12 15.0081 12.2286 14.3841 12.6559C13.7602 13.0831 13.28 13.689 13.0065 14.394C12.7331 15.0991 12.6792 15.8703 12.8519 16.6065C13.0247 17.3427 13.4159 18.0095 13.9744 18.5194C13.2389 18.8374 12.5707 19.2927 12.0056 19.861C11.4406 19.2927 10.7724 18.8374 10.0369 18.5194C10.5953 18.0095 10.9866 17.3427 11.1593 16.6065C11.332 15.8703 11.2781 15.0991 11.0047 14.394C10.7313 13.689 10.2511 13.0831 9.62712 12.6559C9.00317 12.2286 8.26464 12 7.50844 12C6.75224 12 6.0137 12.2286 5.38976 12.6559C4.76581 13.0831 4.28561 13.689 4.01218 14.394C3.73874 15.0991 3.68484 15.8703 3.85756 16.6065C4.03028 17.3427 4.42154 18.0095 4.98 18.5194C3.95686 18.9597 3.06722 19.6609 2.4 20.5528C2.34091 20.6316 2.29791 20.7213 2.27346 20.8167C2.24902 20.9121 2.24361 21.0114 2.25754 21.1089C2.27147 21.2064 2.30446 21.3002 2.35464 21.3849C2.40482 21.4697 2.47121 21.5437 2.55 21.6028C2.62879 21.6619 2.71845 21.7049 2.81386 21.7294C2.90927 21.7538 3.00856 21.7592 3.10607 21.7453C3.20357 21.7314 3.29737 21.6984 3.38212 21.6482C3.46687 21.598 3.54091 21.5316 3.6 21.4528C4.05409 20.8474 4.64291 20.356 5.31983 20.0175C5.99675 19.679 6.74318 19.5028 7.5 19.5028C8.25682 19.5028 9.00324 19.679 9.68017 20.0175C10.3571 20.356 10.9459 20.8474 11.4 21.4528C11.5195 21.6118 11.6972 21.7168 11.8941 21.7448C12.091 21.7727 12.291 21.7213 12.45 21.6019C12.5067 21.5597 12.5569 21.5095 12.5991 21.4528C13.0532 20.8474 13.642 20.356 14.3189 20.0175C14.9958 19.679 15.7422 19.5028 16.4991 19.5028C17.2559 19.5028 18.0023 19.679 18.6792 20.0175C19.3561 20.356 19.945 20.8474 20.3991 21.4528C20.5185 21.612 20.6963 21.7171 20.8933 21.7451C21.0903 21.7732 21.2904 21.7218 21.4495 21.6024C21.6087 21.4829 21.7138 21.3051 21.7419 21.1081C21.7699 20.9111 21.7185 20.711 21.5991 20.5519C20.9352 19.6619 20.0499 18.9612 19.0312 18.5194ZM7.5 13.5028C7.94501 13.5028 8.38002 13.6348 8.75003 13.882C9.12004 14.1293 9.40843 14.4807 9.57873 14.8918C9.74903 15.3029 9.79358 15.7553 9.70677 16.1918C9.61995 16.6282 9.40566 17.0291 9.09099 17.3438C8.77632 17.6585 8.37541 17.8728 7.93895 17.9596C7.5025 18.0464 7.0501 18.0019 6.63896 17.8316C6.22783 17.6613 5.87643 17.3729 5.62919 17.0029C5.38196 16.6328 5.25 16.1978 5.25 15.7528C5.25 15.1561 5.48705 14.5838 5.90901 14.1618C6.33097 13.7399 6.90326 13.5028 7.5 13.5028ZM16.5 13.5028C16.945 13.5028 17.38 13.6348 17.75 13.882C18.12 14.1293 18.4084 14.4807 18.5787 14.8918C18.749 15.3029 18.7936 15.7553 18.7068 16.1918C18.6199 16.6282 18.4057 17.0291 18.091 17.3438C17.7763 17.6585 17.3754 17.8728 16.939 17.9596C16.5025 18.0464 16.0501 18.0019 15.639 17.8316C15.2278 17.6613 14.8764 17.3729 14.6292 17.0029C14.382 16.6328 14.25 16.1978 14.25 15.7528C14.25 15.1561 14.4871 14.5838 14.909 14.1618C15.331 13.7399 15.9033 13.5028 16.5 13.5028Z" fill="rgb(175,177.56,191)" fill-opacity="0.99000001" fill-rule="nonzero" />
</svg>
