<svg viewBox="0 0 24 24" xmlns="http://www.w3.org/2000/svg" xmlns:xlink="http://www.w3.org/1999/xlink" width="24.000000" height="24.000000" fill="none">
	<rect id="New_Icon_For_LMS" width="24.000000" height="24.000000" x="0.000000" y="0.000000" />
	<path id="Vector" d="M15.0701 2.00001L8.92963 2.00001C8.72511 1.99995 8.56831 1.99991 8.43124 2.01462C7.17156 2.1498 6.2074 3.18422 6.14888 4.43727C5.04108 4.76799 4.2517 5.79302 4.23747 6.96865C3.67856 7.13641 3.19648 7.40098 2.80182 7.82727C2.19532 8.48239 2.00737 9.28975 2.00021 10.2329C1.99333 11.1395 2.15489 12.2853 2.35553 13.7082L2.76389 16.6045C2.92074 17.7172 3.04815 18.621 3.2464 19.3293C3.45382 20.0703 3.75956 20.68 4.3256 21.1487C4.88718 21.6137 5.55342 21.8142 6.3409 21.9087C7.10232 22 8.06024 22 9.25289 22L14.7471 22C15.9398 22 16.8977 22 17.6591 21.9087C18.4466 21.8142 19.1128 21.6137 19.6744 21.1487C20.2404 20.68 20.5462 20.0703 20.7536 19.3293C20.9518 18.621 21.0792 17.7172 21.2361 16.6045L21.6444 13.7082C21.8451 12.2853 22.0066 11.1395 21.9998 10.2329C21.9926 9.28975 21.8047 8.48239 21.1982 7.82727C20.8034 7.40088 20.3212 7.13628 19.7621 6.96853C19.7478 5.79302 18.9585 4.7681 17.8509 4.43733C17.7924 3.18425 16.8282 2.14981 15.5685 2.01462C15.4314 1.99991 15.2747 1.99995 15.0701 2.00001ZM16.435 4.32559C16.3359 3.83844 15.9314 3.45693 15.4196 3.402C15.3673 3.39638 15.2927 3.39536 15.0314 3.39536L8.96836 3.39536C8.70709 3.39536 8.63249 3.39638 8.58013 3.402C8.06832 3.45693 7.66383 3.83844 7.56474 4.32559L16.435 4.32559ZM8.85204 6.65117C7.58114 6.65116 6.5254 6.65115 5.6642 6.72357C5.7918 6.15832 6.29671 5.72094 6.91895 5.72094L17.0806 5.72094C17.7029 5.72094 18.2078 6.1583 18.3354 6.72354C17.4742 6.65115 16.4186 6.65116 15.1479 6.65117L8.85204 6.65117ZM5.35453 8.15948C4.53121 8.26899 4.10751 8.47086 3.82574 8.77521C3.55052 9.07249 3.40134 9.47704 3.39552 10.2434C3.38952 11.0342 3.5347 12.077 3.74527 13.5705L4.13873 16.3612C4.30409 17.5341 4.4199 18.3451 4.59011 18.9532C4.75403 19.5388 4.94693 19.8516 5.21548 20.0739C5.4885 20.3 5.85504 20.445 6.50715 20.5232C7.17575 20.6035 8.04973 20.6047 9.298 20.6047L14.702 20.6047C15.9502 20.6047 16.8242 20.6035 17.4928 20.5232C18.1449 20.445 18.5115 20.3 18.7845 20.0739C19.053 19.8516 19.246 19.5388 19.4099 18.9532C19.5801 18.3451 19.6959 17.5341 19.8613 16.3612L20.2547 13.5705C20.4653 12.077 20.6105 11.0342 20.6045 10.2434C20.5986 9.47704 20.4495 9.07249 20.1742 8.77521C19.8925 8.47086 19.4688 8.26899 18.6454 8.15948C17.8072 8.04798 16.685 8.04652 15.0954 8.04652L8.90454 8.04652C7.31495 8.04652 6.1928 8.04798 5.35453 8.15948ZM9.2093 16.8837C8.82398 16.8837 8.51162 17.1961 8.51162 17.5814C8.51162 17.9667 8.82398 18.2791 9.2093 18.2791L14.7907 18.2791C15.176 18.2791 15.4884 17.9667 15.4884 17.5814C15.4884 17.1961 15.176 16.8837 14.7907 16.8837L9.2093 16.8837Z" fill="rgb(175,177.56,191)" fill-opacity="0.99000001" fill-rule="evenodd" />
</svg>
