<svg viewBox="0 0 24 24" xmlns="http://www.w3.org/2000/svg" xmlns:xlink="http://www.w3.org/1999/xlink" width="24.000000" height="24.000000" fill="none">
	<rect id="New_Icon_For_LMS" width="24.000000" height="24.000000" x="0.000000" y="0.000000" />
	<path id="Vector 1" d="M9.81785 2.4726C11.1458 1.85548 12.6774 1.85148 14.0085 2.46164L21.6987 5.9867C23.1311 6.6433 23.2769 8.62148 21.9562 9.48103L19.1705 11.2941L13.797 14.1677C12.6184 14.798 11.2029 14.798 10.0244 14.1677L4.65083 11.2941L1.94656 9.4784C0.652899 8.6098 0.805467 6.66094 2.21853 6.00424L9.81785 2.4726ZM4.65083 11.2941L4.65083 17.0072C4.65083 17.5305 4.85546 18.0345 5.25916 18.3675C6.3598 19.2751 8.85364 21 11.9107 21C14.9677 21 17.4615 19.2751 18.5622 18.3675C18.9659 18.0345 19.1705 17.5305 19.1705 17.0072L19.1705 11.2941" stroke="rgb(108,56,204)" stroke-width="1.5" />
	<path id="Vector 2" d="M4.5 14.5C4.5 14.5 9 18 12 18C15 18 19 14.5 19 14.5" opacity="0" stroke="rgb(175,177.56,191)" stroke-width="1.5" />
	<path id="Vector 3" d="M0 0L5 0" stroke="rgb(108,56,204)" stroke-width="1" transform="matrix(4.37115e-08,1,-1,4.37115e-08,22,10)" />
	<path id="Vector 6" d="M22.8611 17.0232L22.4928 14.8747C22.3978 14.3207 21.6022 14.3207 21.5072 14.8747L21.1389 17.0232C21.0472 17.5577 21.0653 18.1053 21.1918 18.6326L21.5138 19.9742C21.6365 20.4853 22.3635 20.4853 22.4862 19.9742L22.8082 18.6326C22.9347 18.1053 22.9528 17.5577 22.8611 17.0232Z" fill="rgb(108,56,204)" fill-rule="evenodd" />
</svg>
