<svg viewBox="0 0 24 24" xmlns="http://www.w3.org/2000/svg" xmlns:xlink="http://www.w3.org/1999/xlink" width="24.000000" height="24.000000" fill="none">
	<rect id="New_Icon_For_LMS" width="24.000000" height="24.000000" x="0.000000" y="0.000000" fill="rgb(255,255,255)" fill-opacity="0" />
	<path id="Vector 18" d="M3.89243 18.8852C4.08226 20.1025 5.13059 21 6.36258 21L17.6374 21C18.8694 21 19.9177 20.1025 20.1076 18.8852L21.5803 9.44116C21.7238 8.52145 20.6431 7.92185 19.9386 8.53026L17.4947 10.6409C16.9945 11.0729 16.2203 10.9095 15.9374 10.3122L12.9037 3.90789C12.5425 3.14534 11.4575 3.14534 11.0963 3.90789L8.06265 10.3122C7.77971 10.9095 7.00549 11.0729 6.50529 10.6409L4.06135 8.53026C3.35688 7.92185 2.27625 8.52145 2.41967 9.44116L3.89243 18.8852Z" stroke="rgb(175,177.56,191)" stroke-opacity="0.99000001" stroke-width="1.5" />
	<path id="Star 2" d="M13.6889 12.6754L13.9984 12.7003Q14.2817 12.723 14.5298 12.8283Q14.7533 12.9232 14.9484 13.0852Q15.1307 13.2367 15.2607 13.4244Q15.4003 13.626 15.4794 13.8695Q15.5585 14.1129 15.5641 14.3581Q15.5693 14.5864 15.5108 14.8161Q15.4482 15.0618 15.3231 15.2699Q15.1843 15.501 14.9685 15.6859L14.7327 15.8879L14.8047 16.1899Q14.8707 16.4663 14.8471 16.7349Q14.8259 16.9768 14.7322 17.2124Q14.6445 17.4326 14.5061 17.6142Q14.3575 17.8093 14.1504 17.9597Q13.9433 18.1102 13.7119 18.1913Q13.4964 18.2668 13.2598 18.2821Q13.0068 18.2985 12.7702 18.2439Q12.5075 18.1833 12.265 18.0352L12 17.8733L11.735 18.0352Q11.4925 18.1833 11.2298 18.2439Q10.9932 18.2985 10.7402 18.2821Q10.5036 18.2668 10.2881 18.1913Q10.0567 18.1102 9.84964 17.9597Q9.64254 17.8093 9.49393 17.6142Q9.35552 17.4326 9.26783 17.2124Q9.17406 16.9768 9.15286 16.7349Q9.12934 16.4663 9.19527 16.1899L9.26731 15.8879L9.03149 15.6859Q8.81569 15.501 8.67687 15.2699Q8.55182 15.0618 8.48924 14.8161Q8.43072 14.5864 8.43593 14.3581Q8.44154 14.1129 8.52064 13.8695Q8.59974 13.626 8.7393 13.4244Q8.86925 13.2367 9.05164 13.0852Q9.24668 12.9232 9.4702 12.8283Q9.71834 12.723 10.0016 12.7003L10.3111 12.6754L10.4304 12.3887Q10.5395 12.1264 10.7164 11.9229Q10.8757 11.7397 11.09 11.6042Q11.2904 11.4776 11.5092 11.412Q11.744 11.3416 12 11.3416Q12.256 11.3416 12.4908 11.412Q12.7096 11.4776 12.91 11.6042Q13.1243 11.7397 13.2836 11.9229Q13.4605 12.1264 13.5696 12.3887L13.6889 12.6754ZM12.7041 13.6924C12.7026 13.689 12.7011 13.6856 12.6997 13.6822L12.6791 13.6327L12.3693 12.888C12.2327 12.5595 11.7673 12.5595 11.6307 12.888L11.3209 13.6327L11.3003 13.6822C11.2989 13.6856 11.2974 13.689 11.2959 13.6924C11.2378 13.822 11.1152 13.9111 10.9739 13.9263C10.9703 13.9267 10.9666 13.9271 10.963 13.9274L10.9094 13.9316L10.1055 13.9961C9.75081 14.0245 9.607 14.4671 9.87721 14.6986L10.4897 15.2233L10.5305 15.2582C10.5333 15.2606 10.5361 15.2631 10.5388 15.2655C10.6441 15.3609 10.691 15.505 10.6618 15.6441C10.661 15.6476 10.6602 15.6512 10.6594 15.6548L10.6469 15.7071L10.4598 16.4916C10.3772 16.8377 10.7537 17.1112 11.0574 16.9258L11.7457 16.5053L11.7915 16.4774C11.7946 16.4754 11.7978 16.4736 11.801 16.4717C11.9242 16.401 12.0758 16.401 12.199 16.4717C12.2022 16.4736 12.2054 16.4754 12.2085 16.4774L12.2543 16.5053L12.9426 16.9258C13.2463 17.1112 13.6228 16.8377 13.5402 16.4916L13.3531 15.7071L13.3406 15.6548C13.3398 15.6512 13.339 15.6476 13.3382 15.6441C13.309 15.505 13.3559 15.3609 13.4612 15.2655C13.4639 15.2631 13.4667 15.2606 13.4695 15.2582L13.5103 15.2233L14.1228 14.6986C14.393 14.4671 14.2492 14.0245 13.8945 13.9961L13.0906 13.9316L13.037 13.9274C13.0334 13.9271 13.0297 13.9267 13.0261 13.9263C12.8848 13.9111 12.7622 13.822 12.7041 13.6924Z" opacity="0" fill="rgb(175,177.56,191)" fill-rule="evenodd" />
</svg>
