<svg viewBox="0 0 16 16" xmlns="http://www.w3.org/2000/svg" xmlns:xlink="http://www.w3.org/1999/xlink" width="16.000000" height="16.000000" fill="none" customFrame="#000000">
	<rect id="vuesax/linear/more" width="16.000000" height="16.000000" x="0.000000" y="0.000000" fill="rgb(255,255,255)" fill-opacity="0" />
	<g id="vuesax/linear/more">
		<g id="more">
			<path id="Vector" d="M0 1.33333C0 2.06667 0.6 2.66667 1.33333 2.66667C2.06667 2.66667 2.66667 2.06667 2.66667 1.33333C2.66667 0.6 2.06667 0 1.33333 0C0.6 0 0 0.6 0 1.33333Z" fill-rule="nonzero" stroke="rgb(175,177.56,191)" stroke-opacity="0.99000001" stroke-width="1.5" transform="matrix(-4.37114e-08,1,-1,-4.37114e-08,9.33447,2.00113)" />
			<path id="Vector" d="M0 1.33333C0 2.06667 0.6 2.66667 1.33333 2.66667C2.06667 2.66667 2.66667 2.06667 2.66667 1.33333C2.66667 0.6 2.06667 0 1.33333 0C0.6 0 0 0.6 0 1.33333Z" fill-rule="nonzero" stroke="rgb(175,177.56,191)" stroke-opacity="0.99000001" stroke-width="1.5" transform="matrix(-4.37114e-08,1,-1,-4.37114e-08,9.33447,11.3345)" />
			<path id="Vector" d="M0 1.33333C0 2.06667 0.6 2.66667 1.33333 2.66667C2.06667 2.66667 2.66667 2.06667 2.66667 1.33333C2.66667 0.6 2.06667 0 1.33333 0C0.6 0 0 0.6 0 1.33333Z" fill-rule="nonzero" stroke="rgb(175,177.56,191)" stroke-opacity="0.99000001" stroke-width="1.5" transform="matrix(-4.37114e-08,1,-1,-4.37114e-08,9.33447,6.66779)" />
			<path id="Vector" opacity="0" transform="matrix(-4.37114e-08,1,-1,-4.37114e-08,16.0011,0.00112915)" />
		</g>
	</g>
</svg>
