<svg viewBox="0 0 18 18" xmlns="http://www.w3.org/2000/svg" xmlns:xlink="http://www.w3.org/1999/xlink" width="18.000000" height="18.000000" fill="none" customFrame="#000000">
	<rect id="Megaphone" width="18.000000" height="18.000000" x="0.000000" y="0.000000" fill="rgb(255,255,255)" fill-opacity="0" />
	<path id="Vector" d="M17.25 7.55867C17.2489 6.55652 16.8447 5.59572 16.1261 4.88709C15.4074 4.17846 14.433 3.7799 13.4167 3.77886L10.2382 3.77886C10.0058 3.76547 5.95604 3.48435 2.09955 0.295127C1.91332 0.140905 1.68632 0.0422897 1.44522 0.0108655C1.20412 -0.0205587 0.958934 0.0165136 0.738461 0.117727C0.517988 0.218941 0.331387 0.380093 0.200578 0.582251C0.0697692 0.78441 0.000185065 1.01918 0 1.25898L0 13.8584C3.31337e-05 14.0982 0.0695073 14.3331 0.200257 14.5354C0.331006 14.7377 0.517597 14.8989 0.7381 15.0002C0.958602 15.1015 1.20385 15.1387 1.44502 15.1073C1.68619 15.0759 1.91327 14.9773 2.09955 14.823C5.1159 12.3283 8.24885 11.6133 9.58333 11.4133L9.58333 13.9111C9.58307 14.1187 9.63483 14.3232 9.73403 14.5063C9.83324 14.6895 9.97679 14.8456 10.1519 14.9608L11.0304 15.538C11.2002 15.6498 11.3947 15.7198 11.5976 15.7422C11.8004 15.7646 12.0058 15.7387 12.1965 15.6668C12.3871 15.5948 12.5575 15.4789 12.6934 15.3287C12.8293 15.1784 12.9267 14.9983 12.9774 14.8033L13.9174 11.3101C14.8396 11.1891 15.6858 10.7421 16.2988 10.0521C16.9118 9.36203 17.2498 8.47599 17.25 7.55867ZM1.27778 13.8528L1.27778 1.25898C4.69663 4.08675 8.19615 4.80256 9.58333 4.97895L9.58333 10.1352C8.19774 10.3148 4.69903 11.029 1.27778 13.8528ZM11.7396 14.4828L11.7396 14.4915L10.8611 13.9143L10.8611 11.3385L12.5861 11.3385L11.7396 14.4828ZM13.4167 10.0785L10.8611 10.0785L10.8611 5.03879L13.4167 5.03879C14.0944 5.03879 14.7445 5.30428 15.2237 5.77685C15.703 6.24942 15.9722 6.89036 15.9722 7.55867C15.9722 8.22698 15.703 8.86792 15.2237 9.34049C14.7445 9.81306 14.0944 10.0785 13.4167 10.0785Z" fill="rgb(249.688,249.688,249.688)" fill-rule="nonzero" transform="matrix(-1,0,0,1,18,0.75)" />
</svg>
