<svg viewBox="0 0 24 24" xmlns="http://www.w3.org/2000/svg" xmlns:xlink="http://www.w3.org/1999/xlink" width="24.000000" height="24.000000" fill="none">
	<defs>
		<linearGradient id="paint_linear_5" x1="6.62580585" x2="20.7120609" y1="-4" y2="-3.2825861" gradientUnits="userSpaceOnUse">
			<stop stop-color="rgb(214.64,123.356,229.5)" offset="0" stop-opacity="1" />
			<stop stop-color="rgb(189.891,98.8763,229.5)" offset="0.346874863" stop-opacity="1" />
			<stop stop-color="rgb(108,56,204)" offset="1" stop-opacity="1" />
		</linearGradient>
		<linearGradient id="paint_linear_6" x1="1.58064556" x2="6.61783361" y1="1.5" y2="1.6832459" gradientUnits="userSpaceOnUse">
			<stop stop-color="rgb(214.64,123.356,229.5)" offset="0" stop-opacity="1" />
			<stop stop-color="rgb(189.891,98.8763,229.5)" offset="0.346874863" stop-opacity="1" />
			<stop stop-color="rgb(108,56,204)" offset="1" stop-opacity="1" />
		</linearGradient>
		<linearGradient id="paint_linear_7" x1="0.580645561" x2="5.61783361" y1="-2.5" y2="-2.3167541" gradientUnits="userSpaceOnUse">
			<stop stop-color="rgb(214.64,123.356,229.5)" offset="0" stop-opacity="1" />
			<stop stop-color="rgb(189.891,98.8763,229.5)" offset="0.346874863" stop-opacity="1" />
			<stop stop-color="rgb(108,56,204)" offset="1" stop-opacity="1" />
		</linearGradient>
		<linearGradient id="paint_linear_8" x1="7.39354801" x2="19.3606148" y1="13.96875" y2="15.254693" gradientUnits="userSpaceOnUse">
			<stop stop-color="rgb(214.64,123.356,229.5)" offset="0" stop-opacity="1" />
			<stop stop-color="rgb(189.891,98.8763,229.5)" offset="0.346874863" stop-opacity="1" />
			<stop stop-color="rgb(108,56,204)" offset="1" stop-opacity="1" />
		</linearGradient>
		<linearGradient id="paint_linear_9" x1="8.92903233" x2="16.9719505" y1="2.5" y2="2.96814442" gradientUnits="userSpaceOnUse">
			<stop stop-color="rgb(214.64,123.356,229.5)" offset="0" stop-opacity="1" />
			<stop stop-color="rgb(189.891,98.8763,229.5)" offset="0.346874863" stop-opacity="1" />
			<stop stop-color="rgb(108,56,204)" offset="1" stop-opacity="1" />
		</linearGradient>
		<linearGradient id="paint_linear_10" x1="8.92903233" x2="16.9719505" y1="2.5" y2="2.96814442" gradientUnits="userSpaceOnUse">
			<stop stop-color="rgb(214.64,123.356,229.5)" offset="0" stop-opacity="1" />
			<stop stop-color="rgb(189.891,98.8763,229.5)" offset="0.346874863" stop-opacity="1" />
			<stop stop-color="rgb(108,56,204)" offset="1" stop-opacity="1" />
		</linearGradient>
	</defs>
	<rect id="New_Icon_For_LMS" width="24.000000" height="24.000000" x="0.000000" y="0.000000" fill="rgb(255,255,255)" fill-opacity="0" />
	<g id="Group" opacity="0">
		<path id="Vector" d="M22.8821 3.25513C22.7992 3.17995 22.6885 3.12984 22.5778 3.12984L18.3729 3.12984L18.3729 1.37585C18.3729 1.1754 18.1793 1 17.958 1L6.14549 1C5.92418 1 5.73053 1.1754 5.73053 1.37585L5.73053 3.12984L1.41496 3.12984C1.3043 3.12984 1.19365 3.17995 1.11066 3.25513C1.02766 3.3303 1 3.43052 1 3.53075C1 3.60592 1.08299 5.20957 1.71926 7.06378C2.60451 9.54442 4.09836 11.2984 6.09016 12.1002C6.75409 14.1048 8.27561 15.6834 10.1844 16.3098L10.1844 16.385C10.1844 18.4647 8.44159 20.1185 6.20081 20.1185C5.9795 20.1185 5.78586 20.2938 5.78586 20.4943L5.78586 22.6241C5.78586 22.8246 5.9795 23 6.20081 23L17.958 23C18.1793 23 18.3729 22.8246 18.3729 22.6241L18.3729 20.4943C18.3729 20.2938 18.1793 20.1185 17.958 20.1185C15.6895 20.1185 13.8361 18.4396 13.8361 16.385L13.8361 16.3349C15.8279 15.7084 17.377 14.1048 18.041 12.0501C19.9498 11.2232 21.416 9.49431 22.2735 7.06378C22.9375 5.20957 22.9928 3.58087 22.9928 3.53075C23.0205 3.43052 22.9651 3.3303 22.8821 3.25513ZM1.85758 3.88155L5.73053 3.88155L5.73053 9.89522C5.73053 10.3212 5.75819 10.7221 5.84118 11.123C2.6875 9.41914 1.9959 5.18451 1.85758 3.88155ZM17.543 20.8451L17.543 22.2232L6.61577 22.2232L6.61577 20.8451C9.0502 20.6697 10.9313 18.8405 10.9867 16.5103C11.3186 16.5604 11.6783 16.6105 12.0379 16.6105C12.3699 16.6105 12.7018 16.5854 13.0061 16.5353C13.1168 18.8155 15.0809 20.6697 17.543 20.8451ZM13.1445 15.7585C12.7848 15.8337 12.4252 15.8838 12.0656 15.8838C11.6506 15.8838 11.2356 15.8337 10.8483 15.7335C10.7654 15.7084 10.627 15.6583 10.5717 15.6583C8.27561 14.9567 6.56044 12.6515 6.56044 9.92027L6.56044 1.77677L17.543 1.77677L17.543 3.28018L17.543 3.75626L17.543 9.92027C17.543 12.6515 15.8279 14.9567 13.5041 15.6583M18.2899 11.0729C18.3453 10.697 18.4006 10.2961 18.4006 9.89522L18.4006 3.88155L22.1629 3.88155C22.0246 5.18451 21.3606 9.29385 18.2899 11.0729Z" fill="rgb(54.1078,206.125,197.004)" fill-rule="nonzero" />
		<path id="Vector" d="M15.4282 6.58974L13.4203 6.28205L12.5142 4.35897C12.4163 4.15385 12.1959 4 11.9755 4C11.7551 4 11.5347 4.1282 11.4368 4.35897L10.5308 6.28205L8.5228 6.58974C8.30242 6.61538 8.10652 6.79487 8.03306 7.02564C7.9596 7.25641 8.00857 7.51282 8.17998 7.66667L9.64922 9.15384L9.3064 11.2564C9.25742 11.4872 9.35537 11.7179 9.55127 11.8718C9.64922 11.9487 9.77166 12 9.91858 12C10.0165 12 10.1145 11.9744 10.1879 11.9231L12.049 10.9487L13.8121 11.9231C14.008 12.0256 14.2528 12.0256 14.4487 11.8718C14.6446 11.7179 14.7181 11.4872 14.6936 11.2564L14.3508 9.15384L15.82 7.66667C15.9914 7.48718 16.0404 7.25641 15.9669 7.02564C15.8445 6.79487 15.6731 6.61538 15.4282 6.58974ZM13.6651 8.74359C13.5672 8.82051 13.5427 8.94872 13.5672 9.07692L13.91 11.1026L12.2204 10.1795C12.1224 10.1282 12 10.1282 11.8776 10.1795L10.0655 11.1282L10.4083 9.07692C10.4328 8.94872 10.3838 8.82051 10.3104 8.74359L8.9146 7.30769L10.8491 7C10.9715 6.97436 11.0695 6.89744 11.1185 6.79487L11.9755 4.94872L12.8326 6.79487C12.8815 6.89744 12.9795 7 13.1019 7L15.0364 7.30769L13.6651 8.74359Z" fill="rgb(54.1078,206.125,197.004)" fill-rule="nonzero" />
	</g>
	<path id="Rectangle 2108" d="M19 2.5L19 1L5 1L5 10C5 13.866 8.13401 17 12 17C15.866 17 19 13.866 19 10L19 2.5ZM17.5 2.5L17.5 10Q17.5 10.6364 17.3606 11.2407Q17.2547 11.6998 17.0684 12.1404Q16.8761 12.595 16.6107 13.0019Q16.3 13.4782 15.8891 13.8891Q15.4782 14.3 15.0019 14.6107Q14.595 14.8761 14.1404 15.0684Q13.6998 15.2547 13.2407 15.3606Q12.6364 15.5 12 15.5Q11.3636 15.5 10.7593 15.3606Q10.3002 15.2547 9.85961 15.0684Q9.40499 14.8761 8.99808 14.6107Q8.52181 14.3 8.11091 13.8891Q7.7 13.4782 7.3893 13.0019Q7.12388 12.595 6.9316 12.1404Q6.74528 11.6999 6.63939 11.2408Q6.5 10.6365 6.5 10L6.5 2.5L17.5 2.5Z" fill="url(#paint_linear_5)" fill-rule="evenodd" />
	<path id="Vector 7" d="M5.54545 4L2 4C1.44772 4 1.00805 4.44867 1.07956 4.99631C1.31631 6.80948 2.25759 10.5911 6 12" stroke="url(#paint_linear_6)" stroke-width="1.5" />
	<path id="Vector 8" d="M4.54545 0L1 0C0.447715 0 0.00805103 0.448672 0.0795576 0.996308C0.316309 2.80948 1.25759 6.59109 5 8" stroke="url(#paint_linear_7)" stroke-width="1.5" transform="matrix(-1,0,0,1,23,4)" />
	<path id="Vector 9" d="M11.5 16C11.5 16 10.5 18 9 19C8.12465 19.5836 7.24929 19.9969 6.67204 20.2399C6.27534 20.4069 6 20.7903 6 21.2208L6 21.5C6 22.0523 6.44772 22.5 7 22.5L17 22.5C17.5523 22.5 18 22.0523 18 21.5L18 21.2208C18 20.7903 17.7247 20.4069 17.328 20.2399C16.7507 19.9969 15.8754 19.5836 15 19C13.5 18 12.5 16 12.5 16" stroke="url(#paint_linear_8)" stroke-width="1.5" />
	<path id="Star 1" d="M11.7147 5.87811C11.8045 5.60172 12.1955 5.60172 12.2853 5.87812L12.8307 7.55664C12.8709 7.68024 12.9861 7.76393 13.116 7.76393L14.8809 7.76393C15.1715 7.76393 15.2924 8.13582 15.0573 8.30664L13.6294 9.34402C13.5243 9.42041 13.4803 9.55582 13.5204 9.67943L14.0658 11.358C14.1556 11.6343 13.8393 11.8642 13.6042 11.6934L12.1763 10.656C12.0712 10.5796 11.9288 10.5796 11.8237 10.656L10.3958 11.6934C10.1607 11.8642 9.84437 11.6343 9.93418 11.358L10.4796 9.67943C10.5197 9.55582 10.4757 9.42041 10.3706 9.34402L8.94274 8.30664C8.70763 8.13582 8.82846 7.76393 9.11908 7.76393L10.884 7.76393C11.0139 7.76393 11.1291 7.68024 11.1693 7.55664L11.7147 5.87811Z" fill="url(#paint_linear_9)" fill-rule="nonzero" />
	<path id="Star 1" d="M13.116 7.76393C12.9861 7.76393 12.8709 7.68024 12.8307 7.55664L12.2853 5.87812C12.1955 5.60172 11.8045 5.60172 11.7147 5.87812L11.1693 7.55664C11.1291 7.68024 11.0139 7.76393 10.884 7.76393L9.11908 7.76393C8.82846 7.76393 8.70763 8.13582 8.94274 8.30664L10.3706 9.34402C10.4757 9.42041 10.5197 9.55582 10.4796 9.67943L9.93418 11.358C9.84437 11.6343 10.1607 11.8642 10.3958 11.6934L11.8237 10.656C11.9288 10.5796 12.0712 10.5796 12.1763 10.656L13.6042 11.6934C13.8393 11.8642 14.1556 11.6343 14.0658 11.358L13.5204 9.67943C13.4803 9.55582 13.5243 9.42041 13.6294 9.34402L15.0573 8.30664C15.2924 8.13582 15.1715 7.76393 14.8809 7.76393L13.116 7.76393ZM12 6.61803L12.3552 7.71115Q12.3953 7.83475 12.468 7.93475Q12.5406 8.03475 12.6458 8.11115Q12.7509 8.18754 12.8685 8.22574Q12.9861 8.26393 13.116 8.26393L14.2654 8.26393L13.3355 8.93951Q13.2304 9.01591 13.1577 9.11591Q13.0851 9.21591 13.0449 9.33951Q13.0047 9.46312 13.0047 9.58673Q13.0047 9.71033 13.0449 9.83394L13.4001 10.9271L12.4702 10.2515Q12.3651 10.1751 12.2475 10.1369Q12.13 10.0987 12 10.0987Q11.87 10.0987 11.7525 10.1369Q11.6349 10.1751 11.5298 10.2515L10.5999 10.9271L10.9551 9.83394Q10.9953 9.71033 10.9953 9.58673Q10.9953 9.46312 10.9551 9.33951Q10.9149 9.2159 10.8423 9.1159Q10.7696 9.0159 10.6645 8.93951L9.73462 8.26393L10.884 8.26393Q11.014 8.26393 11.1315 8.22573Q11.2491 8.18754 11.3542 8.11115Q11.4594 8.03475 11.532 7.93475Q11.6047 7.83475 11.6448 7.71115L12 6.61803Z" fill="url(#paint_linear_10)" fill-rule="evenodd" />
</svg>
