<svg viewBox="0 0 24 24" xmlns="http://www.w3.org/2000/svg" xmlns:xlink="http://www.w3.org/1999/xlink" width="24.000000" height="24.000000" fill="none">
	<defs>
		<linearGradient id="paint_linear_0" x1="3.64536285" x2="25.4633026" y1="-5.44335938" y2="-4.15956497" gradientUnits="userSpaceOnUse">
			<stop stop-color="rgb(214.64,123.356,229.5)" offset="0" stop-opacity="1" />
			<stop stop-color="rgb(189.891,98.8763,229.5)" offset="0.346874863" stop-opacity="1" />
			<stop stop-color="rgb(108,56,204)" offset="1" stop-opacity="1" />
		</linearGradient>
		<linearGradient id="paint_linear_1" x1="3.64536285" x2="25.4633026" y1="-5.44335938" y2="-4.15956497" gradientUnits="userSpaceOnUse">
			<stop stop-color="rgb(214.64,123.356,229.5)" offset="0" stop-opacity="1" />
			<stop stop-color="rgb(189.891,98.8763,229.5)" offset="0.346874863" stop-opacity="1" />
			<stop stop-color="rgb(108,56,204)" offset="1" stop-opacity="1" />
		</linearGradient>
	</defs>
	<rect id="New_Icon_For_LMS" width="24.000000" height="24.000000" x="0.000000" y="0.000000" />
	<path id="money" d="M2.58001 1.29743C2.04938 1.42377 1.53724 1.85372 1.2828 2.38653C1.12904 2.70853 1.125 2.72938 1.125 3.20532C1.125 3.68127 1.12904 3.70212 1.2828 4.02412C1.49264 4.46345 1.79932 4.77007 2.23875 4.97987L2.56922 5.13764L4.4913 5.15025C5.54847 5.15722 6.41338 5.1694 6.41338 5.17735C6.41338 5.18529 6.35124 5.32293 6.27533 5.48325C6.1445 5.75946 6.13728 5.80015 6.13728 6.26305C6.13728 6.72596 6.1445 6.76664 6.27533 7.04286C6.35128 7.20318 6.41338 7.33988 6.41338 7.34672C6.41338 7.35356 6.06452 7.36575 5.63818 7.37382L4.86297 7.38847L4.5325 7.54624C4.09308 7.75603 3.7864 8.06265 3.57656 8.50199C3.42279 8.82399 3.41876 8.84484 3.41876 9.32078C3.41876 9.79469 3.4233 9.8186 3.57214 10.1277C3.65654 10.3029 3.80627 10.537 3.90495 10.6479L4.08437 10.8496L3.90495 11.0514C3.80627 11.1623 3.65654 11.3964 3.57214 11.5716C3.4233 11.8807 3.41876 11.9046 3.41876 12.3785C3.41876 12.8524 3.4233 12.8763 3.57214 13.1854C3.65654 13.3606 3.80627 13.5947 3.90495 13.7056L4.08437 13.9074L3.90495 14.1091C3.80627 14.2201 3.65654 14.4542 3.57214 14.6293C3.4233 14.9384 3.41876 14.9623 3.41876 15.4362C3.41876 15.9101 3.4233 15.9341 3.57214 16.2431C3.65654 16.4183 3.80627 16.6524 3.90495 16.7634L4.08437 16.9651L3.90495 17.1668C3.80627 17.2778 3.65654 17.5119 3.57214 17.6871C3.4233 17.9962 3.41876 18.0201 3.41876 18.494C3.41876 18.9699 3.42279 18.9908 3.57656 19.3128C3.7864 19.7521 4.09308 20.0587 4.5325 20.2685L4.86297 20.4263L7.59858 20.4384L10.3342 20.4505L10.6913 20.7885C11.7626 21.8024 13.1621 22.4728 14.64 22.68C15.3098 22.7739 16.4412 22.7426 17.0539 22.6133C19.6822 22.0583 21.803 20.1249 22.5533 17.5998C22.7948 16.7872 22.8298 16.5188 22.8281 15.4999C22.8262 14.455 22.77 14.0795 22.4891 13.2366C21.7632 11.0588 19.9696 9.29547 17.7915 8.61835C17.594 8.55694 17.5402 8.51881 17.4835 8.40007C17.4458 8.32095 17.4149 8.24909 17.4149 8.24043C17.4149 8.23181 17.7637 8.21809 18.1901 8.21002L18.9653 8.19537L19.2958 8.0376C19.7352 7.8278 20.0419 7.52118 20.2517 7.08184C20.4055 6.75985 20.4095 6.739 20.4095 6.26305C20.4095 5.78711 20.4055 5.76626 20.2517 5.44426C20.0419 5.00492 19.7352 4.6983 19.2958 4.48851L18.9653 4.33074L17.0432 4.31812C15.9861 4.31116 15.1212 4.29897 15.1212 4.29103C15.1212 4.28309 15.1833 4.14545 15.2592 3.98513C15.39 3.70891 15.3973 3.66823 15.3973 3.20532C15.3973 2.72938 15.3932 2.70853 15.2395 2.38653C15.0296 1.9472 14.7229 1.64057 14.2835 1.43078L13.953 1.27301L8.34609 1.26626C5.1804 1.26248 2.66985 1.27602 2.58001 1.29743ZM13.9688 2.24868C14.3474 2.45835 14.5421 2.78323 14.5421 3.20532C14.5421 3.62742 14.3474 3.9523 13.9688 4.16197L13.7407 4.28827L8.45228 4.30105C5.54367 4.3081 3.0656 4.3022 2.94548 4.28797C2.34201 4.21641 1.88534 3.62402 1.97955 3.03498C2.02487 2.75168 2.24206 2.43834 2.49994 2.28427C2.62507 2.20948 2.77786 2.14038 2.8395 2.1307C2.90109 2.12102 5.37907 2.11516 8.34609 2.11775L13.7407 2.12238L13.9688 2.24868ZM18.981 5.30641C19.3596 5.51607 19.5544 5.84096 19.5544 6.26305C19.5544 6.68515 19.3596 7.01003 18.981 7.2197L18.7529 7.346L13.4646 7.35878C10.556 7.36583 8.07789 7.35993 7.95776 7.3457C7.35429 7.27414 6.89762 6.68175 6.99184 6.09271C7.03716 5.8094 7.25434 5.49607 7.51222 5.342C7.63736 5.26721 7.79015 5.19811 7.85178 5.18843C7.91337 5.17875 10.3914 5.17289 13.3584 5.17548L18.7529 5.18011L18.981 5.30641ZM15.9919 8.2558C16.0654 8.27258 15.8044 8.29653 15.376 8.31233C14.5914 8.3412 14.1032 8.42092 13.4523 8.62642C12.4936 8.92905 11.4888 9.51066 10.7614 10.184L10.5011 10.425L7.91563 10.4245C6.49367 10.4242 5.25818 10.4121 5.17017 10.3976C4.89789 10.3526 4.5819 10.1322 4.43336 9.8837C4.20195 9.49652 4.20195 9.14505 4.43336 8.75786C4.57222 8.52552 4.9063 8.28145 5.13326 8.24654C5.32916 8.21643 15.8589 8.22539 15.9919 8.2558ZM16.223 9.19669C19.0985 9.46598 21.4177 11.6317 21.9041 14.5014C21.994 15.0319 21.994 16.0105 21.9041 16.5409C21.4441 19.2553 19.3658 21.3332 16.6508 21.7931C16.1203 21.883 15.1415 21.883 14.6109 21.7931C12.2019 21.3851 10.2028 19.6245 9.53599 17.3238C9.19754 16.1561 9.1969 14.8884 9.53421 13.7245C10.2037 11.4149 12.2019 9.64707 14.5834 9.25767C15.2513 9.14849 15.5782 9.1363 16.223 9.19669ZM15.9674 10.1244C15.6888 10.403 15.8812 10.8496 16.2798 10.8496C16.5817 10.8496 16.7878 10.5976 16.7169 10.3152C16.6372 9.99739 16.2046 9.88727 15.9674 10.1244ZM17.5391 10.634C17.4436 10.7295 17.4149 10.7971 17.4149 10.9266C17.4149 11.1451 17.4914 11.2305 17.8822 11.4483C19.7686 12.4998 20.6982 14.729 20.1085 16.7869C20.0503 16.99 19.9365 17.2967 19.8556 17.4685C19.6737 17.8551 19.6675 18.0218 19.8283 18.2018C19.9266 18.3118 19.9798 18.3357 20.1265 18.3357C20.2419 18.3357 20.3365 18.3073 20.3938 18.2556C20.6169 18.0542 20.9762 17.0944 21.0917 16.3917C21.1843 15.8284 21.1542 14.8045 21.0304 14.3067C20.6317 12.7034 19.6291 11.3777 18.2793 10.6692C17.897 10.4684 17.7134 10.4597 17.5391 10.634ZM9.71202 11.3699C9.36031 11.8685 8.93482 12.7113 8.76861 13.2385L8.69164 13.4827L7.01091 13.4822C6.08652 13.482 5.25818 13.4699 5.17017 13.4553C4.89789 13.4103 4.5819 13.1899 4.43336 12.9414C4.20195 12.5542 4.20195 12.2028 4.43336 11.8156C4.57222 11.5832 4.9063 11.3392 5.13326 11.3043C5.19485 11.2948 6.26544 11.2842 7.51235 11.2807L9.77943 11.2743L9.71202 11.3699ZM15.4089 12.0625C15.26 12.1433 15.2061 12.2475 15.2061 12.4547C15.2061 12.6179 15.201 12.6235 14.9705 12.7117C14.5093 12.8881 14.1618 13.2069 13.9645 13.6347C13.8847 13.8078 13.8681 13.9166 13.8681 14.2684C13.8681 14.644 13.8814 14.72 13.983 14.9266C14.1221 15.2095 14.4552 15.5538 14.7393 15.7084C14.9655 15.8315 15.4203 15.9439 15.6969 15.9451C15.9151 15.9461 16.2819 16.1261 16.3982 16.2894C16.6764 16.6801 16.5348 17.1853 16.0814 17.4197C16.0109 17.4561 15.8336 17.4955 15.6874 17.5073C15.202 17.5462 14.7871 17.2507 14.7173 16.8165C14.6741 16.5482 14.617 16.4346 14.4863 16.3574C14.165 16.1676 13.8495 16.3792 13.8478 16.7857C13.8452 17.4019 14.2885 17.9985 14.9474 18.2654C15.1626 18.3525 15.186 18.3748 15.1968 18.5021C15.2134 18.6982 15.2894 18.8307 15.4255 18.901C15.5781 18.9799 15.6972 18.9769 15.8437 18.8904C15.9869 18.8058 16.0557 18.6697 16.0557 18.4707C16.0557 18.3567 16.073 18.3241 16.1338 18.3241C16.3833 18.3241 16.9664 17.9008 17.1759 17.5676C17.5659 16.9472 17.4716 16.1439 16.9453 15.6037C16.6097 15.2592 16.2588 15.1242 15.4562 15.0309C15.0442 14.983 14.7207 14.6492 14.7207 14.272C14.7207 13.9988 14.8274 13.8051 15.0728 13.6326C15.2261 13.5249 15.3022 13.5029 15.5682 13.4894C15.8283 13.4763 15.9165 13.49 16.0791 13.5687C16.3332 13.6916 16.5128 13.9381 16.5494 14.2138C16.5989 14.5871 16.8528 14.7728 17.1461 14.6503C17.3639 14.5593 17.43 14.4176 17.4043 14.097C17.3553 13.487 16.8874 12.9145 16.268 12.7066C16.0895 12.6467 16.0761 12.6316 16.0651 12.4786C16.0496 12.2618 15.978 12.1296 15.8363 12.0564C15.6896 11.9805 15.5565 11.9824 15.4089 12.0625ZM11.0221 12.7074C10.9754 12.7182 10.9016 12.7585 10.8582 12.797C10.6415 12.9888 10.2789 13.975 10.1683 14.6732C10.076 15.2557 10.1057 16.2369 10.2307 16.7356C10.5711 18.094 11.2817 19.1786 12.3493 19.9696C12.7958 20.3004 13.2463 20.5325 13.4422 20.5325C13.6657 20.5325 13.8469 20.3459 13.8469 20.1158C13.8469 19.8973 13.7704 19.8118 13.3796 19.5941C12.8648 19.3071 12.4682 18.975 12.0522 18.4825C10.9143 17.1351 10.6555 15.1687 11.4061 13.5738C11.5874 13.1887 11.5945 13.0183 11.4363 12.8504C11.3162 12.723 11.1714 12.6729 11.0221 12.7074ZM8.46341 14.5126C8.44561 14.6118 8.43104 15.1087 8.43104 15.6167L8.43104 16.5404L6.88063 16.54C6.02791 16.5397 5.25818 16.5276 5.17017 16.513C4.89789 16.4681 4.5819 16.2476 4.43336 15.9992C4.20195 15.612 4.20195 15.2605 4.43336 14.8733C4.57222 14.641 4.9063 14.3969 5.13326 14.362C5.19485 14.3525 5.97664 14.3419 6.87052 14.3384L8.49578 14.3321L8.46341 14.5126ZM8.72082 17.6553C8.84218 18.0714 9.15536 18.7763 9.40483 19.1947L9.63267 19.5769L7.54518 19.5895C6.39703 19.5965 5.35936 19.5905 5.23924 19.5764C4.63606 19.5054 4.17905 18.9128 4.27331 18.3236C4.31863 18.0403 4.53582 17.727 4.79369 17.5729C4.91883 17.4981 5.07162 17.4292 5.13326 17.4197C5.19485 17.4103 6.00985 17.3997 6.94435 17.3962L8.64343 17.3899L8.72082 17.6553ZM14.6831 20.2953C14.3773 20.5786 14.5627 21.0421 14.982 21.0421C15.1334 21.0421 15.1945 21.0178 15.2943 20.9179C15.573 20.6394 15.3805 20.1927 14.982 20.1927C14.8418 20.1927 14.7655 20.2189 14.6831 20.2953Z" fill="url(#paint_linear_0)" fill-rule="evenodd" />
	<path id="money" d="M1.2828 2.38653C1.12904 2.70853 1.125 2.72938 1.125 3.20532C1.125 3.68127 1.12904 3.70212 1.2828 4.02412C1.49264 4.46345 1.79932 4.77007 2.23875 4.97987L2.56922 5.13764L4.4913 5.15025C5.54847 5.15722 6.41338 5.1694 6.41338 5.17735C6.41338 5.18529 6.35124 5.32293 6.27533 5.48325C6.1445 5.75946 6.13728 5.80015 6.13728 6.26305C6.13728 6.72596 6.1445 6.76664 6.27533 7.04286C6.35128 7.20318 6.41338 7.33988 6.41338 7.34672C6.41338 7.35356 6.06452 7.36575 5.63818 7.37382L4.86297 7.38847L4.5325 7.54624C4.09308 7.75603 3.7864 8.06265 3.57656 8.50199C3.42279 8.82399 3.41876 8.84484 3.41876 9.32078C3.41876 9.79469 3.4233 9.8186 3.57214 10.1277C3.65654 10.3029 3.80627 10.537 3.90495 10.6479L4.08437 10.8496L3.90495 11.0514C3.80627 11.1623 3.65654 11.3964 3.57214 11.5716C3.4233 11.8807 3.41876 11.9046 3.41876 12.3785C3.41876 12.8524 3.4233 12.8763 3.57214 13.1854C3.65654 13.3606 3.80627 13.5947 3.90495 13.7056L4.08437 13.9074L3.90495 14.1091C3.80627 14.2201 3.65654 14.4542 3.57214 14.6293C3.4233 14.9384 3.41876 14.9623 3.41876 15.4362C3.41876 15.9101 3.4233 15.9341 3.57214 16.2431C3.65654 16.4183 3.80627 16.6524 3.90495 16.7634L4.08437 16.9651L3.90495 17.1668C3.80627 17.2778 3.65654 17.5119 3.57214 17.6871C3.4233 17.9962 3.41876 18.0201 3.41876 18.494C3.41876 18.9699 3.42279 18.9908 3.57656 19.3128C3.7864 19.7521 4.09308 20.0587 4.5325 20.2685L4.86297 20.4263L7.59858 20.4384L10.3342 20.4505L10.6913 20.7885C11.7626 21.8024 13.1621 22.4728 14.64 22.68C15.3098 22.7739 16.4412 22.7426 17.0539 22.6133C19.6822 22.0583 21.803 20.1249 22.5533 17.5998C22.7948 16.7872 22.8298 16.5188 22.8281 15.4999C22.8262 14.455 22.77 14.0795 22.4891 13.2366C21.7632 11.0588 19.9696 9.29547 17.7915 8.61835C17.594 8.55694 17.5402 8.51881 17.4835 8.40007C17.4458 8.32095 17.4149 8.24909 17.4149 8.24043C17.4149 8.23181 17.7637 8.21809 18.1901 8.21002L18.9653 8.19537L19.2958 8.0376C19.7352 7.8278 20.0419 7.52118 20.2517 7.08184C20.4055 6.75985 20.4095 6.739 20.4095 6.26305C20.4095 5.78711 20.4055 5.76626 20.2517 5.44426C20.0419 5.00492 19.7352 4.6983 19.2958 4.48851L18.9653 4.33074L17.0432 4.31812C15.9861 4.31116 15.1212 4.29897 15.1212 4.29103C15.1212 4.28309 15.1833 4.14545 15.2592 3.98513C15.39 3.70891 15.3973 3.66823 15.3973 3.20532C15.3973 2.72938 15.3932 2.70853 15.2395 2.38653C15.0296 1.9472 14.7229 1.64057 14.2835 1.43078L13.953 1.27301L8.34609 1.26626C5.1804 1.26248 2.66985 1.27602 2.58001 1.29743C2.04938 1.42377 1.53724 1.85372 1.2828 2.38653ZM14.5421 3.20532C14.5421 3.62742 14.3474 3.9523 13.9688 4.16197L13.7407 4.28827L8.45228 4.30105C5.54367 4.3081 3.0656 4.3022 2.94548 4.28797C2.34201 4.21641 1.88534 3.62402 1.97955 3.03498C2.02487 2.75168 2.24206 2.43834 2.49994 2.28427C2.62507 2.20948 2.77786 2.14038 2.8395 2.1307C2.90109 2.12102 5.37907 2.11516 8.34609 2.11775L13.7407 2.12238L13.9688 2.24868C14.3474 2.45835 14.5421 2.78323 14.5421 3.20532ZM19.5544 6.26305C19.5544 6.68515 19.3596 7.01003 18.981 7.2197L18.7529 7.346L13.4646 7.35878C10.556 7.36583 8.07789 7.35993 7.95776 7.3457C7.35429 7.27414 6.89762 6.68175 6.99184 6.09271C7.03716 5.8094 7.25434 5.49607 7.51222 5.342C7.63736 5.26721 7.79015 5.19811 7.85178 5.18843C7.91337 5.17875 10.3914 5.17289 13.3584 5.17548L18.7529 5.18011L18.981 5.30641C19.3596 5.51607 19.5544 5.84096 19.5544 6.26305ZM15.376 8.31233C14.5914 8.3412 14.1032 8.42092 13.4523 8.62642C12.4936 8.92905 11.4888 9.51066 10.7614 10.184L10.5011 10.425L7.91563 10.4245C6.49367 10.4242 5.25818 10.4121 5.17017 10.3976C4.89789 10.3526 4.5819 10.1322 4.43336 9.8837C4.20195 9.49652 4.20195 9.14505 4.43336 8.75786C4.57222 8.52552 4.9063 8.28145 5.13326 8.24654C5.32916 8.21643 15.8589 8.22539 15.9919 8.2558C16.0654 8.27258 15.8044 8.29653 15.376 8.31233ZM21.9041 14.5014C21.994 15.0319 21.994 16.0105 21.9041 16.5409C21.4441 19.2553 19.3658 21.3332 16.6508 21.7931C16.1203 21.883 15.1415 21.883 14.6109 21.7931C12.2019 21.3851 10.2028 19.6245 9.53599 17.3238C9.19754 16.1561 9.1969 14.8884 9.53421 13.7245C10.2037 11.4149 12.2019 9.64707 14.5834 9.25767C15.2513 9.14849 15.5782 9.1363 16.223 9.19669C19.0985 9.46598 21.4177 11.6317 21.9041 14.5014ZM16.2798 10.8496C16.5817 10.8496 16.7878 10.5976 16.7169 10.3152C16.6372 9.99739 16.2046 9.88727 15.9674 10.1244C15.6888 10.403 15.8812 10.8496 16.2798 10.8496ZM17.4149 10.9266C17.4149 11.1451 17.4914 11.2305 17.8822 11.4483C19.7686 12.4998 20.6982 14.729 20.1085 16.7869C20.0503 16.99 19.9365 17.2967 19.8556 17.4685C19.6737 17.8551 19.6675 18.0218 19.8283 18.2018C19.9266 18.3118 19.9798 18.3357 20.1265 18.3357C20.2419 18.3357 20.3365 18.3073 20.3938 18.2556C20.6169 18.0542 20.9762 17.0944 21.0917 16.3917C21.1843 15.8284 21.1542 14.8045 21.0304 14.3067C20.6317 12.7034 19.6291 11.3777 18.2793 10.6692C17.897 10.4684 17.7134 10.4597 17.5391 10.634C17.4436 10.7295 17.4149 10.7971 17.4149 10.9266ZM8.76861 13.2385L8.69164 13.4827L7.01091 13.4822C6.08652 13.482 5.25818 13.4699 5.17017 13.4553C4.89789 13.4103 4.5819 13.1899 4.43336 12.9414C4.20195 12.5542 4.20195 12.2028 4.43336 11.8156C4.57222 11.5832 4.9063 11.3392 5.13326 11.3043C5.19485 11.2948 6.26544 11.2842 7.51235 11.2807L9.77943 11.2743L9.71202 11.3699C9.36031 11.8685 8.93482 12.7113 8.76861 13.2385ZM15.2061 12.4547C15.2061 12.6179 15.201 12.6235 14.9705 12.7117C14.5093 12.8881 14.1618 13.2069 13.9645 13.6347C13.8847 13.8078 13.8681 13.9166 13.8681 14.2684C13.8681 14.644 13.8814 14.72 13.983 14.9266C14.1221 15.2095 14.4552 15.5538 14.7393 15.7084C14.9655 15.8315 15.4203 15.9439 15.6969 15.9451C15.9151 15.9461 16.2819 16.1261 16.3982 16.2894C16.6764 16.6801 16.5348 17.1853 16.0814 17.4197C16.0109 17.4561 15.8336 17.4955 15.6874 17.5073C15.202 17.5462 14.7871 17.2507 14.7173 16.8165C14.6741 16.5482 14.617 16.4346 14.4863 16.3574C14.165 16.1676 13.8495 16.3792 13.8478 16.7857C13.8452 17.4019 14.2885 17.9985 14.9474 18.2654C15.1626 18.3525 15.186 18.3748 15.1968 18.5021C15.2134 18.6982 15.2894 18.8307 15.4255 18.901C15.5781 18.9799 15.6972 18.9769 15.8437 18.8904C15.9869 18.8058 16.0557 18.6697 16.0557 18.4707C16.0557 18.3567 16.073 18.3241 16.1338 18.3241C16.3833 18.3241 16.9664 17.9008 17.1759 17.5676C17.5659 16.9472 17.4716 16.1439 16.9453 15.6037C16.6097 15.2592 16.2588 15.1242 15.4562 15.0309C15.0442 14.983 14.7207 14.6492 14.7207 14.272C14.7207 13.9988 14.8274 13.8051 15.0728 13.6326C15.2261 13.5249 15.3022 13.5029 15.5682 13.4894C15.8283 13.4763 15.9165 13.49 16.0791 13.5687C16.3332 13.6916 16.5128 13.9381 16.5494 14.2138C16.5989 14.5871 16.8528 14.7728 17.1461 14.6503C17.3639 14.5593 17.43 14.4176 17.4043 14.097C17.3553 13.487 16.8874 12.9145 16.268 12.7066C16.0895 12.6467 16.0761 12.6316 16.0651 12.4786C16.0496 12.2618 15.978 12.1296 15.8363 12.0564C15.6896 11.9805 15.5565 11.9824 15.4089 12.0625C15.26 12.1433 15.2061 12.2475 15.2061 12.4547ZM10.8582 12.797C10.6415 12.9888 10.2789 13.975 10.1683 14.6732C10.076 15.2557 10.1057 16.2369 10.2307 16.7356C10.5711 18.094 11.2817 19.1786 12.3493 19.9696C12.7958 20.3004 13.2463 20.5325 13.4422 20.5325C13.6657 20.5325 13.8469 20.3459 13.8469 20.1158C13.8469 19.8973 13.7704 19.8118 13.3796 19.5941C12.8648 19.3071 12.4682 18.975 12.0522 18.4825C10.9143 17.1351 10.6555 15.1687 11.4061 13.5738C11.5874 13.1887 11.5945 13.0183 11.4363 12.8504C11.3162 12.723 11.1714 12.6729 11.0221 12.7074C10.9754 12.7182 10.9016 12.7585 10.8582 12.797ZM8.43104 15.6167L8.43104 16.5404L6.88063 16.54C6.02791 16.5397 5.25818 16.5276 5.17017 16.513C4.89789 16.4681 4.5819 16.2476 4.43336 15.9992C4.20195 15.612 4.20195 15.2605 4.43336 14.8733C4.57222 14.641 4.9063 14.3969 5.13326 14.362C5.19485 14.3525 5.97664 14.3419 6.87052 14.3384L8.49578 14.3321L8.46341 14.5126C8.44561 14.6118 8.43104 15.1087 8.43104 15.6167ZM9.40483 19.1947L9.63267 19.5769L7.54518 19.5895C6.39703 19.5965 5.35936 19.5905 5.23924 19.5764C4.63606 19.5054 4.17905 18.9128 4.27331 18.3236C4.31863 18.0403 4.53582 17.727 4.79369 17.5729C4.91883 17.4981 5.07162 17.4292 5.13326 17.4197C5.19485 17.4103 6.00985 17.3997 6.94435 17.3962L8.64343 17.3899L8.72082 17.6553C8.84218 18.0714 9.15536 18.7763 9.40483 19.1947ZM14.982 21.0421C15.1334 21.0421 15.1945 21.0178 15.2943 20.9179C15.573 20.6394 15.3805 20.1927 14.982 20.1927C14.8418 20.1927 14.7655 20.2189 14.6831 20.2953C14.3773 20.5786 14.5627 21.0421 14.982 21.0421Z" fill-rule="evenodd" stroke="url(#paint_linear_1)" stroke-width="0.300000012" />
</svg>
