<svg viewBox="0 0 24 24" xmlns="http://www.w3.org/2000/svg" xmlns:xlink="http://www.w3.org/1999/xlink" width="24.000000" height="24.000000" fill="none">
	<defs>
		<linearGradient id="paint_linear_3" x1="5.09032249" x2="23.1985054" y1="-4.25" y2="-3.30139923" gradientUnits="userSpaceOnUse">
			<stop stop-color="rgb(214.64,123.356,229.5)" offset="0" stop-opacity="1" />
			<stop stop-color="rgb(189.891,98.8763,229.5)" offset="0.346874863" stop-opacity="1" />
			<stop stop-color="rgb(108,56,204)" offset="1" stop-opacity="1" />
		</linearGradient>
	</defs>
	<rect id="New_Icon_For_LMS" width="24.000000" height="24.000000" x="0.000000" y="0.000000" fill="rgb(255,255,255)" fill-opacity="0" />
	<path id="Icon" d="M21 10L3 10M16.2 4C17.8802 4 18.7202 4 19.362 4.32698C19.9265 4.6146 20.3854 5.07354 20.673 5.63803C21 6.27976 21 7.11984 21 8.8L21 17.2C21 18.8802 21 19.7202 20.673 20.362C20.3854 20.9265 19.9265 21.3854 19.362 21.673C18.7202 22 17.8802 22 16.2 22L7.8 22C6.11984 22 5.27976 22 4.63803 21.673C4.07354 21.3854 3.6146 20.9265 3.32698 20.362C3 19.7202 3 18.8802 3 17.2L3 8.8C3 7.11984 3 6.27976 3.32698 5.63803C3.6146 5.07354 4.07354 4.6146 4.63803 4.32698C5.27976 4 6.11984 4 7.8 4L16.2 4ZM16 2L16 6M8 2L8 6" fill-rule="nonzero" stroke="url(#paint_linear_3)" stroke-linecap="round" stroke-linejoin="round" stroke-width="1.5" />
</svg>
