<svg viewBox="0 0 36.6656 35.4064" xmlns="http://www.w3.org/2000/svg" xmlns:xlink="http://www.w3.org/1999/xlink" width="36.665588" height="35.406372" fill="none" customFrame="#000000">
	<rect id="Xnix/Line/Kid_Bag" width="24.000000" height="24.000000" x="0.000000" y="0.000000" fill="rgb(255,255,255)" fill-opacity="0" />
	<g id="Vector">
		<path id="Rectangle_1419" d="M7.6875 6.5625C7.6875 6.97671 8.02329 7.3125 8.4375 7.3125C8.85171 7.3125 9.1875 6.97671 9.1875 6.5625L7.6875 6.5625ZM14.8125 6.5625C14.8125 6.97671 15.1483 7.3125 15.5625 7.3125C15.9767 7.3125 16.3125 6.97671 16.3125 6.5625L14.8125 6.5625ZM8.46605 7.31196C8.87996 7.2962 9.20273 6.94787 9.18696 6.53396C9.1712 6.12005 8.82288 5.79728 8.40897 5.81304L8.46605 7.31196ZM2.98432 10.5967C2.9169 11.0054 3.19356 11.3913 3.60225 11.4587C4.01094 11.5262 4.3969 11.2495 4.46432 10.8408L2.98432 10.5967ZM8.4375 5.8125C8.02329 5.8125 7.6875 6.14829 7.6875 6.5625C7.6875 6.97671 8.02329 7.3125 8.4375 7.3125L8.4375 5.8125ZM15.5625 7.3125C15.9767 7.3125 16.3125 6.97671 16.3125 6.5625C16.3125 6.14829 15.9767 5.8125 15.5625 5.8125L15.5625 7.3125ZM9.53724 13.0783C9.9486 13.1268 10.3214 12.8326 10.3699 12.4212C10.4183 12.0099 10.1242 11.6371 9.7128 11.5886L9.53724 13.0783ZM4.02707 10.037C3.6481 9.86983 3.20534 10.0415 3.03815 10.4205C2.87095 10.7994 3.04262 11.2422 3.42159 11.4094L4.02707 10.037ZM10.375 12.3348C10.375 11.9206 10.0392 11.5848 9.625 11.5848C9.21079 11.5848 8.875 11.9206 8.875 12.3348L10.375 12.3348ZM8.875 14.8642C8.875 15.2784 9.21079 15.6142 9.625 15.6142C10.0392 15.6142 10.375 15.2784 10.375 14.8642L8.875 14.8642ZM9.71545 11.589C9.30426 11.539 8.93043 11.8319 8.88047 12.2431C8.83052 12.6543 9.12336 13.0281 9.53455 13.0781L9.71545 11.589ZM12 12.4879L11.9933 13.238L12.0063 13.2379L12 12.4879ZM14.4651 13.0793C14.8763 13.0295 15.1693 12.6559 15.1196 12.2446C15.0698 11.8334 14.6961 11.5404 14.2849 11.5901L14.4651 13.0793ZM3.41701 11.4045C3.79486 11.5742 4.23875 11.4055 4.40847 11.0277C4.57818 10.6498 4.40946 10.2059 4.03161 10.0362L3.41701 11.4045ZM2.86298 9.45368C2.50051 9.25321 2.04416 9.38454 1.84369 9.74701C1.64322 10.1095 1.77455 10.5658 2.13702 10.7663L2.86298 9.45368ZM4.46812 10.8194C4.52123 10.4086 4.23127 10.0325 3.82048 9.9794C3.40969 9.92629 3.03362 10.2163 2.98051 10.6271L4.46812 10.8194ZM3.6875 11.3003L4.4375 11.3003L4.4375 11.2995L3.6875 11.3003ZM3.6875 16.0503L2.9375 16.0503C2.9375 16.0599 2.93769 16.0695 2.93805 16.0791L3.6875 16.0503ZM8.80325 20.8003L8.80325 20.0503C8.7943 20.0503 8.78534 20.0505 8.77639 20.0508L8.80325 20.8003ZM15.1979 20.8003L15.2246 20.0508C15.2157 20.0505 15.2068 20.0503 15.1979 20.0503L15.1979 20.8003ZM20.3125 16.0503L21.062 16.0791C21.0623 16.0695 21.0625 16.0599 21.0625 16.0503L20.3125 16.0503ZM20.3125 11.3003L19.5625 11.2995L19.5625 11.3003L20.3125 11.3003ZM21.0195 10.627C20.9664 10.2163 20.5903 9.92629 20.1795 9.9794C19.7687 10.0325 19.4788 10.4086 19.5319 10.8194L21.0195 10.627ZM15.591 5.81304C15.1771 5.79728 14.8288 6.12005 14.813 6.53396C14.7973 6.94787 15.12 7.2962 15.534 7.31196L15.591 5.81304ZM19.5357 10.8408C19.6031 11.2495 19.9891 11.5262 20.3978 11.4587C20.8064 11.3913 21.0831 11.0054 21.0157 10.5967L19.5357 10.8408ZM14.2872 11.5886C13.8759 11.6371 13.5817 12.0099 13.6302 12.4212C13.6786 12.8326 14.0514 13.1268 14.4628 13.0783L14.2872 11.5886ZM20.5784 11.4094C20.9574 11.2422 21.1291 10.7994 20.9619 10.4205C20.7947 10.0415 20.3519 9.86983 19.9729 10.037L20.5784 11.4094ZM15.125 12.3348C15.125 11.9206 14.7892 11.5848 14.375 11.5848C13.9608 11.5848 13.625 11.9206 13.625 12.3348L15.125 12.3348ZM13.625 14.8642C13.625 15.2784 13.9608 15.6142 14.375 15.6142C14.7892 15.6142 15.125 15.2784 15.125 14.8642L13.625 14.8642ZM19.9684 10.0362C19.5905 10.2059 19.4218 10.6498 19.5915 11.0277C19.7612 11.4055 20.2051 11.5742 20.583 11.4045L19.9684 10.0362ZM21.863 10.7663C22.2254 10.5658 22.3568 10.1095 22.1563 9.74701C21.9558 9.38454 21.4995 9.25321 21.137 9.45368L21.863 10.7663ZM8.4375 6.5625L9.1875 6.5625C9.1875 5.0092 10.4467 3.75 12 3.75L12 3L12 2.25C9.61827 2.25 7.6875 4.18077 7.6875 6.5625L8.4375 6.5625ZM12 3L12 3.75C13.5533 3.75 14.8125 5.0092 14.8125 6.5625L15.5625 6.5625L16.3125 6.5625C16.3125 4.18077 14.3817 2.25 12 2.25L12 3ZM8.43751 6.5625L8.40897 5.81304C5.69395 5.91643 3.42652 7.91593 2.98432 10.5967L3.72432 10.7188L4.46432 10.8408C4.79053 8.86324 6.4632 7.38823 8.46605 7.31196L8.43751 6.5625ZM8.4375 6.5625L8.4375 7.3125L15.5625 7.3125L15.5625 6.5625L15.5625 5.8125L8.4375 5.8125L8.4375 6.5625ZM9.62502 12.3335L9.7128 11.5886C7.75087 11.3574 5.83448 10.8344 4.02707 10.037L3.72433 10.7232L3.42159 11.4094C5.36567 12.2671 7.42696 12.8296 9.53724 13.0783L9.62502 12.3335ZM9.625 12.3348L8.875 12.3348L8.875 14.8642L9.625 14.8642L10.375 14.8642L10.375 12.3348L9.625 12.3348ZM9.625 12.3335L9.53455 13.0781C10.3505 13.1772 11.1714 13.2305 11.9933 13.2379L12 12.4879L12.0067 11.7379C11.2408 11.7311 10.4758 11.6814 9.71545 11.589L9.625 12.3335ZM12 12.4879L12.0063 13.2379C12.8282 13.2309 13.6491 13.178 14.4651 13.0793L14.375 12.3347L14.2849 11.5901C13.5245 11.6821 12.7596 11.7315 11.9937 11.7379L12 12.4879ZM3.72431 10.7204L4.03161 10.0362C3.62115 9.85185 3.2317 9.6576 2.86298 9.45368L2.5 10.11L2.13702 10.7663C2.54413 10.9915 2.97089 11.2041 3.41701 11.4045L3.72431 10.7204ZM3.72432 10.7232L2.98051 10.6271C2.9516 10.8506 2.93724 11.0758 2.9375 11.3012L3.6875 11.3003L4.4375 11.2995C4.43731 11.1389 4.44754 10.9786 4.46812 10.8194L3.72432 10.7232ZM3.6875 11.3003L2.9375 11.3003L2.9375 16.0503L3.6875 16.0503L4.4375 16.0503L4.4375 11.3003L3.6875 11.3003ZM3.6875 16.0503L2.93805 16.0791C3.05819 19.2151 5.69381 21.6623 8.83011 21.5499L8.80325 20.8003L8.77639 20.0508C6.46654 20.1336 4.52544 18.3313 4.43695 16.0216L3.6875 16.0503ZM8.80325 20.8003L8.80325 21.5503L15.1979 21.5503L15.1979 20.8003L15.1979 20.0503L8.80325 20.0503L8.80325 20.8003ZM15.1979 20.8003L15.1713 21.5499C18.307 21.6615 20.9418 19.2145 21.062 16.0791L20.3125 16.0503L19.5631 16.0216C19.4746 18.3309 17.5341 20.133 15.2246 20.0508L15.1979 20.8003ZM20.3125 16.0503L21.0625 16.0503L21.0625 11.3003L20.3125 11.3003L19.5625 11.3003L19.5625 16.0503L20.3125 16.0503ZM20.3125 11.3003L21.0625 11.3012C21.0628 11.0758 21.0484 10.8506 21.0195 10.627L20.2757 10.7232L19.5319 10.8194C19.5525 10.9786 19.5627 11.1389 19.5625 11.2995L20.3125 11.3003ZM15.5625 6.5625L15.534 7.31196C17.5368 7.38823 19.2095 8.86324 19.5357 10.8408L20.2757 10.7188L21.0157 10.5967C20.5735 7.91593 18.3061 5.91643 15.591 5.81304L15.5625 6.5625ZM14.375 12.3335L14.4628 13.0783C16.5731 12.8296 18.6343 12.2671 20.5784 11.4094L20.2757 10.7232L19.9729 10.037C18.1655 10.8344 16.2491 11.3574 14.2872 11.5886L14.375 12.3335ZM14.375 12.3348L13.625 12.3348L13.625 14.8642L14.375 14.8642L15.125 14.8642L15.125 12.3348L14.375 12.3348ZM20.2757 10.7204L20.583 11.4045C21.0291 11.2041 21.4558 10.9915 21.863 10.7663L21.5 10.11L21.137 9.45368C20.7683 9.6576 20.3788 9.85185 19.9684 10.0362L20.2757 10.7204Z" fill-rule="evenodd" stroke="rgb(249.688,249.688,249.688)" stroke-linecap="round" stroke-linejoin="round" stroke-width="1.5" />
	</g>
</svg>
